<svg width="204" height="50" viewBox="0 0 204 50" fill="none" xmlns="http://www.w3.org/2000/svg">
<path d="M65.56 26.0431V25.6591L67.48 24.6991V11.5471L65.56 10.5871V10.2031H71.56V10.5871L69.64 11.5471V24.6991L71.56 25.6591V26.0431H65.56ZM69.664 17.9311L76.312 11.4031L74.608 10.5871V10.2031H79.648V10.5871L78.16 11.1631L71.848 17.3551L79.432 25.0351L80.896 25.6591V26.0431H77.44L69.664 17.9311ZM81.3154 26.0431V25.6591L82.8514 24.8671L88.9954 10.0831H90.0754L96.1234 24.7951L97.7314 25.6591V26.0431H91.7794V25.6591L93.8914 24.8431L92.0914 20.4031H86.2594L84.4834 24.8431L86.4994 25.6591V26.0431H81.3154ZM86.8114 19.0831H91.5634L89.1874 13.1791L86.8114 19.0831ZM100.083 26.0431V25.6591L102.003 24.6991V11.5471L100.083 10.5871V10.2031H106.323C108.211 10.2031 109.723 10.5471 110.859 11.2351C112.011 11.9231 112.587 13.0111 112.587 14.4991C112.587 15.3791 112.283 16.1631 111.675 16.8511C111.083 17.5231 110.267 18.0591 109.227 18.4591C108.203 18.8591 107.043 19.0591 105.747 19.0591H104.163V24.6991L106.323 25.6591V26.0431H100.083ZM104.163 11.5231V17.7391H106.203C107.467 17.7391 108.459 17.4591 109.179 16.8991C109.899 16.3231 110.259 15.5871 110.259 14.6911C110.259 13.5711 109.891 12.7631 109.155 12.2671C108.435 11.7711 107.395 11.5231 106.035 11.5231H104.163ZM112.698 26.0431V25.6591L114.234 24.8671L120.378 10.0831H121.458L127.506 24.7951L129.114 25.6591V26.0431H123.162V25.6591L125.274 24.8431L123.474 20.4031H117.642L115.866 24.8431L117.882 25.6591V26.0431H112.698ZM118.194 19.0831H122.946L120.57 13.1791L118.194 19.0831ZM138.78 26.2831C137.148 26.2831 135.74 25.9471 134.556 25.2751C133.372 24.6031 132.46 23.6911 131.82 22.5391C131.18 21.3711 130.86 20.0431 130.86 18.5551C130.86 17.4191 131.076 16.3391 131.508 15.3151C131.956 14.2751 132.556 13.3551 133.308 12.5551C134.076 11.7551 134.956 11.1231 135.948 10.6591C136.956 10.1951 138.02 9.96314 139.14 9.96314C139.94 9.96314 140.62 10.0191 141.18 10.1311C141.74 10.2271 142.236 10.3631 142.668 10.5391C143.116 10.6991 143.564 10.8911 144.012 11.1151L144.132 15.3151H143.7L142.236 12.3871C141.628 11.9551 141.092 11.6431 140.628 11.4511C140.18 11.2591 139.668 11.1631 139.092 11.1631C137.94 11.1631 136.908 11.4511 135.996 12.0271C135.1 12.6031 134.388 13.3951 133.86 14.4031C133.348 15.3951 133.092 16.5391 133.092 17.8351C133.092 19.3551 133.34 20.6591 133.836 21.7471C134.348 22.8191 135.028 23.6431 135.876 24.2191C136.74 24.7791 137.692 25.0591 138.732 25.0591C139.612 25.0591 140.348 24.9391 140.94 24.6991C141.548 24.4431 142.084 24.1631 142.548 23.8591L143.988 21.2911H144.396L144.132 25.1071C143.668 25.3471 143.188 25.5551 142.692 25.7311C142.212 25.9071 141.66 26.0431 141.036 26.1391C140.412 26.2351 139.66 26.2831 138.78 26.2831ZM148.274 26.0431V25.6591L150.194 24.6991V11.5471L148.274 10.5871V10.2031H154.274V10.5871L152.354 11.5471V24.6991L154.274 25.6591V26.0431H148.274ZM160.553 26.0431V25.6591L162.953 24.6991V11.5231H159.041L157.409 15.0511H157.025V10.2031H171.041V15.0511H170.657L169.025 11.5231H165.113V24.6991L167.513 25.6591V26.0431H160.553ZM173.677 26.0431V25.6591L175.597 24.6991V11.5471L173.677 10.5871V10.2031H185.413V14.3311H185.029L183.541 11.5231H177.757V17.2111H181.837L183.037 15.2191H183.421V20.4751H183.037L181.837 18.5311H177.757V24.7231H184.213L185.701 21.6751H186.085V26.0431H173.677ZM192.381 26.0431V25.6591L194.781 24.6991V11.5231H190.869L189.237 15.0511H188.853V10.2031H202.869V15.0511H202.485L200.853 11.5231H196.941V24.6991L199.341 25.6591V26.0431H192.381Z" fill="white"/>
<path d="M1.92249 44.9569V44.7889L2.76249 44.3689V38.6149L1.92249 38.1949V38.0269H4.65249C5.47849 38.0269 6.13999 38.1774 6.63699 38.4784C7.14099 38.7794 7.39299 39.2554 7.39299 39.9064C7.39299 40.2914 7.25999 40.6344 6.99399 40.9354C6.73499 41.2294 6.37799 41.4639 5.92299 41.6389C5.47499 41.8139 4.96749 41.9014 4.40049 41.9014H3.70749V44.3689L4.65249 44.7889V44.9569H1.92249ZM3.70749 38.6044V41.3239H4.59999C5.15299 41.3239 5.58699 41.2014 5.90199 40.9564C6.21699 40.7044 6.37449 40.3824 6.37449 39.9904C6.37449 39.5004 6.21349 39.1469 5.89149 38.9299C5.57649 38.7129 5.12149 38.6044 4.52649 38.6044H3.70749ZM12.0858 45.0619C11.5608 45.0619 11.0918 44.9639 10.6788 44.7679C10.2728 44.5719 9.95075 44.2709 9.71275 43.8649C9.47475 43.4519 9.35575 42.9199 9.35575 42.2689V38.6149L8.51575 38.1949V38.0269H11.1408V38.1949L10.3008 38.6149V42.1114C10.3008 42.6924 10.3918 43.1544 10.5738 43.4974C10.7558 43.8404 11.0008 44.0854 11.3088 44.2324C11.6238 44.3794 11.9738 44.4529 12.3588 44.4529C12.6668 44.4529 12.9503 44.3864 13.2093 44.2534C13.4753 44.1204 13.6853 43.9104 13.8393 43.6234C14.0003 43.3364 14.0808 42.9549 14.0808 42.4789V38.5939L13.0308 38.1949V38.0269H15.6453V38.1949L14.8158 38.6044V42.2689C14.8158 42.9199 14.6968 43.4519 14.4588 43.8649C14.2208 44.2709 13.8953 44.5719 13.4823 44.7679C13.0763 44.9639 12.6108 45.0619 12.0858 45.0619ZM16.9535 44.9569V44.7889L17.7935 44.3689V38.6359L16.964 38.1949V38.0269H18.5075L22.5185 43.0669V38.5939L21.4685 38.1949V38.0269H24.083V38.1949L23.2535 38.6044V45.0094H22.865L18.5285 39.5389V44.3794L19.5785 44.7889V44.9569H16.9535ZM25.2911 44.9569V44.7889L26.1311 44.3689V38.6149L25.2911 38.1949V38.0269H30.4256V39.8329H30.2576L29.6066 38.6044H27.0761V41.0929H28.8611L29.3861 40.2214H29.5541V42.5209H29.3861L28.8611 41.6704H27.0761V44.3794H29.9006L30.5516 43.0459H30.7196V44.9569H25.2911ZM36.8553 45.0619C36.4213 45.0619 36.0538 45.0234 35.7528 44.9464C35.4518 44.8624 35.1403 44.7399 34.8183 44.5789L34.7133 42.8569H34.8813L35.3958 43.9699C35.6478 44.1799 35.8928 44.3339 36.1308 44.4319C36.3688 44.5229 36.6103 44.5684 36.8553 44.5684C37.2683 44.5684 37.5903 44.4599 37.8213 44.2429C38.0593 44.0259 38.1783 43.7319 38.1783 43.3609C38.1783 43.0529 38.1083 42.8114 37.9683 42.6364C37.8353 42.4614 37.6393 42.3074 37.3803 42.1744C37.1283 42.0344 36.8273 41.8769 36.4773 41.7019C36.1483 41.5339 35.8683 41.3694 35.6373 41.2084C35.4063 41.0474 35.2313 40.8619 35.1123 40.6519C34.9933 40.4349 34.9338 40.1654 34.9338 39.8434C34.9338 39.6054 34.9898 39.3744 35.1018 39.1504C35.2208 38.9194 35.3783 38.7129 35.5743 38.5309C35.7773 38.3419 36.0013 38.1949 36.2463 38.0899C36.4983 37.9779 36.7573 37.9219 37.0233 37.9219C37.3453 37.9219 37.6428 37.9604 37.9158 38.0374C38.1888 38.1144 38.4688 38.2229 38.7558 38.3629L38.8608 40.0429H38.6928L38.2098 38.9404C37.9648 38.7584 37.7513 38.6289 37.5693 38.5519C37.3873 38.4679 37.1773 38.4259 36.9393 38.4259C36.6313 38.4259 36.3758 38.5309 36.1728 38.7409C35.9768 38.9509 35.8788 39.2099 35.8788 39.5179C35.8788 39.8749 35.9873 40.1549 36.2043 40.3579C36.4213 40.5539 36.7608 40.7639 37.2228 40.9879C37.6498 41.1979 37.9998 41.3939 38.2728 41.5759C38.5458 41.7509 38.7488 41.9539 38.8818 42.1849C39.0148 42.4159 39.0813 42.7099 39.0813 43.0669C39.0813 43.3959 39.0113 43.6864 38.8713 43.9384C38.7313 44.1834 38.5493 44.3899 38.3253 44.5579C38.1083 44.7259 37.8668 44.8519 37.6008 44.9359C37.3418 45.0199 37.0933 45.0619 36.8553 45.0619ZM43.8929 45.0619C43.3889 45.0619 42.9234 44.9744 42.4964 44.7994C42.0764 44.6174 41.7089 44.3689 41.3939 44.0539C41.0789 43.7319 40.8339 43.3539 40.6589 42.9199C40.4839 42.4859 40.3964 42.0099 40.3964 41.4919C40.3964 40.9739 40.4839 40.4979 40.6589 40.0639C40.8339 39.6299 41.0789 39.2554 41.3939 38.9404C41.7089 38.6184 42.0764 38.3699 42.4964 38.1949C42.9234 38.0129 43.3889 37.9219 43.8929 37.9219C44.3969 37.9219 44.8624 38.0129 45.2894 38.1949C45.7164 38.3699 46.0874 38.6184 46.4024 38.9404C46.7174 39.2554 46.9624 39.6299 47.1374 40.0639C47.3124 40.4979 47.3999 40.9739 47.3999 41.4919C47.3999 42.0099 47.3124 42.4859 47.1374 42.9199C46.9624 43.3539 46.7174 43.7319 46.4024 44.0539C46.0874 44.3689 45.7164 44.6174 45.2894 44.7994C44.8624 44.9744 44.3969 45.0619 43.8929 45.0619ZM44.1134 44.5369C44.5614 44.5369 44.9534 44.4249 45.2894 44.2009C45.6324 43.9769 45.8984 43.6619 46.0874 43.2559C46.2834 42.8499 46.3814 42.3704 46.3814 41.8174C46.3814 41.1384 46.2624 40.5469 46.0244 40.0429C45.7864 39.5319 45.4644 39.1364 45.0584 38.8564C44.6594 38.5764 44.2114 38.4364 43.7144 38.4364C43.2664 38.4364 42.8674 38.5484 42.5174 38.7724C42.1744 38.9894 41.9049 39.3009 41.7089 39.7069C41.5129 40.1129 41.4149 40.5924 41.4149 41.1454C41.4149 41.8244 41.5339 42.4194 41.7719 42.9304C42.0169 43.4414 42.3424 43.8369 42.7484 44.1169C43.1544 44.3969 43.6094 44.5369 44.1134 44.5369ZM48.8136 44.9569V44.7889L49.6536 44.3689V38.6149L48.8136 38.1949V38.0269H51.4701C51.9321 38.0269 52.3451 38.0864 52.7091 38.2054C53.0801 38.3174 53.3706 38.4889 53.5806 38.7199C53.7906 38.9439 53.8956 39.2309 53.8956 39.5809C53.8956 39.9379 53.7766 40.2669 53.5386 40.5679C53.3006 40.8619 52.9576 41.0719 52.5096 41.1979C53.1326 41.2819 53.6191 41.4779 53.9691 41.7859C54.3191 42.0869 54.4941 42.4719 54.4941 42.9409C54.4941 43.3259 54.3716 43.6724 54.1266 43.9804C53.8886 44.2814 53.5596 44.5194 53.1396 44.6944C52.7196 44.8694 52.2436 44.9569 51.7116 44.9569H48.8136ZM51.2286 38.6044H50.5986V41.0929H51.2916C51.7886 41.0929 52.1771 40.9879 52.4571 40.7779C52.7371 40.5609 52.8771 40.2599 52.8771 39.8749C52.8771 39.0279 52.3276 38.6044 51.2286 38.6044ZM51.6276 41.6704H50.5986V44.3794H51.7011C52.2541 44.3794 52.6881 44.2534 53.0031 44.0014C53.3181 43.7494 53.4756 43.4239 53.4756 43.0249C53.4756 42.5489 53.3146 42.2059 52.9926 41.9959C52.6776 41.7789 52.2226 41.6704 51.6276 41.6704ZM55.7247 44.9569V44.7889L56.5647 44.3689V38.6149L55.7247 38.1949V38.0269H60.8592V39.8329H60.6912L60.0402 38.6044H57.5097V41.0929H59.2947L59.8197 40.2214H59.9877V42.5209H59.8197L59.2947 41.6704H57.5097V44.3794H60.3342L60.9852 43.0459H61.1532V44.9569H55.7247ZM65.2518 44.9569V44.7889L66.0918 44.3689V38.6149L65.2518 38.1949V38.0269H67.8768V38.1949L67.0368 38.6149V44.3689L67.8768 44.7889V44.9569H65.2518ZM71.8632 44.9569V44.7889L72.6927 44.3689L72.9132 38.6254L72.0102 38.1949V38.0269H73.9527L76.3782 43.6129L78.7932 38.0269H80.6412V38.1949L79.7592 38.6149L79.9377 44.3689L80.6727 44.7889V44.9569H78.2577V44.7889L79.0347 44.3794L78.9297 39.2029L76.4202 45.0094H75.9477L73.4802 39.2764L73.3437 44.3794L74.1942 44.7889V44.9569H71.8632ZM82.0375 44.9569V44.7889L82.8775 44.3689V38.6149L82.0375 38.1949V38.0269H84.6625V38.1949L83.8225 38.6149V44.3689L84.6625 44.7889V44.9569H82.0375ZM86.0763 44.9569V44.7889L86.9163 44.3689V38.6149L86.0763 38.1949V38.0269H88.7853C89.5203 38.0269 90.0978 38.1809 90.5178 38.4889C90.9448 38.7899 91.1583 39.2064 91.1583 39.7384C91.1583 40.1304 91.0253 40.4839 90.7593 40.7989C90.4933 41.1069 90.1398 41.3414 89.6988 41.5024L91.6938 44.4109L92.3868 44.7889V44.9569H90.8748L88.8378 41.7754H87.8613V44.3584L88.6488 44.7889V44.9569H86.0763ZM88.5438 38.6044H87.8613V41.1979H88.6068C89.0478 41.1979 89.4118 41.0754 89.6988 40.8304C89.9928 40.5784 90.1398 40.2599 90.1398 39.8749C90.1398 39.4829 89.9963 39.1749 89.7093 38.9509C89.4223 38.7199 89.0338 38.6044 88.5438 38.6044ZM92.6822 44.9569V44.7889L93.3542 44.4424L96.0422 37.9744H96.5147L99.1607 44.4109L99.8642 44.7889V44.9569H97.2602V44.7889L98.1842 44.4319L97.3967 42.4894H94.8452L94.0682 44.4319L94.9502 44.7889V44.9569H92.6822ZM95.0867 41.9119H97.1657L96.1262 39.3289L95.0867 41.9119ZM100.841 44.9569V44.7889L101.681 44.3689V38.6359L100.851 38.1949V38.0269H102.395L106.406 43.0669V38.5939L105.356 38.1949V38.0269H107.97V38.1949L107.141 38.6044V45.0094H106.752L102.416 39.5389V44.3794L103.466 44.7889V44.9569H100.841ZM113.995 45.0619C113.561 45.0619 113.194 45.0234 112.893 44.9464C112.592 44.8624 112.28 44.7399 111.958 44.5789L111.853 42.8569H112.021L112.536 43.9699C112.788 44.1799 113.033 44.3339 113.271 44.4319C113.509 44.5229 113.75 44.5684 113.995 44.5684C114.408 44.5684 114.73 44.4599 114.961 44.2429C115.199 44.0259 115.318 43.7319 115.318 43.3609C115.318 43.0529 115.248 42.8114 115.108 42.6364C114.975 42.4614 114.779 42.3074 114.52 42.1744C114.268 42.0344 113.967 41.8769 113.617 41.7019C113.288 41.5339 113.008 41.3694 112.777 41.2084C112.546 41.0474 112.371 40.8619 112.252 40.6519C112.133 40.4349 112.074 40.1654 112.074 39.8434C112.074 39.6054 112.13 39.3744 112.242 39.1504C112.361 38.9194 112.518 38.7129 112.714 38.5309C112.917 38.3419 113.141 38.1949 113.386 38.0899C113.638 37.9779 113.897 37.9219 114.163 37.9219C114.485 37.9219 114.783 37.9604 115.056 38.0374C115.329 38.1144 115.609 38.2229 115.896 38.3629L116.001 40.0429H115.833L115.35 38.9404C115.105 38.7584 114.891 38.6289 114.709 38.5519C114.527 38.4679 114.317 38.4259 114.079 38.4259C113.771 38.4259 113.516 38.5309 113.313 38.7409C113.117 38.9509 113.019 39.2099 113.019 39.5179C113.019 39.8749 113.127 40.1549 113.344 40.3579C113.561 40.5539 113.901 40.7639 114.363 40.9879C114.79 41.1979 115.14 41.3939 115.413 41.5759C115.686 41.7509 115.889 41.9539 116.022 42.1849C116.155 42.4159 116.221 42.7099 116.221 43.0669C116.221 43.3959 116.151 43.6864 116.011 43.9384C115.871 44.1834 115.689 44.3899 115.465 44.5579C115.248 44.7259 115.007 44.8519 114.741 44.9359C114.482 45.0199 114.233 45.0619 113.995 45.0619ZM117.045 44.9569V44.7889L117.717 44.4424L120.405 37.9744H120.878L123.524 44.4109L124.227 44.7889V44.9569H121.623V44.7889L122.547 44.4319L121.76 42.4894H119.208L118.431 44.4319L119.313 44.7889V44.9569H117.045ZM119.45 41.9119H121.529L120.489 39.3289L119.45 41.9119ZM125.204 44.9569V44.7889L126.044 44.3689V38.6359L125.214 38.1949V38.0269H126.758L130.769 43.0669V38.5939L129.719 38.1949V38.0269H132.333V38.1949L131.504 38.6044V45.0094H131.115L126.779 39.5389V44.3794L127.829 44.7889V44.9569H125.204ZM136.269 44.9569V44.7889L137.109 44.3689V38.6149L136.269 38.1949V38.0269H138.894V38.1949L138.054 38.6149V41.0929H141.624V38.6149L140.784 38.1949V38.0269H143.409V38.1949L142.569 38.6149V44.3689L143.409 44.7889V44.9569H140.784V44.7889L141.624 44.3689V41.6704H138.054V44.3689L138.894 44.7889V44.9569H136.269ZM148.319 45.0619C147.815 45.0619 147.349 44.9744 146.922 44.7994C146.502 44.6174 146.135 44.3689 145.82 44.0539C145.505 43.7319 145.26 43.3539 145.085 42.9199C144.91 42.4859 144.822 42.0099 144.822 41.4919C144.822 40.9739 144.91 40.4979 145.085 40.0639C145.26 39.6299 145.505 39.2554 145.82 38.9404C146.135 38.6184 146.502 38.3699 146.922 38.1949C147.349 38.0129 147.815 37.9219 148.319 37.9219C148.823 37.9219 149.288 38.0129 149.715 38.1949C150.142 38.3699 150.513 38.6184 150.828 38.9404C151.143 39.2554 151.388 39.6299 151.563 40.0639C151.738 40.4979 151.826 40.9739 151.826 41.4919C151.826 42.0099 151.738 42.4859 151.563 42.9199C151.388 43.3539 151.143 43.7319 150.828 44.0539C150.513 44.3689 150.142 44.6174 149.715 44.7994C149.288 44.9744 148.823 45.0619 148.319 45.0619ZM148.539 44.5369C148.987 44.5369 149.379 44.4249 149.715 44.2009C150.058 43.9769 150.324 43.6619 150.513 43.2559C150.709 42.8499 150.807 42.3704 150.807 41.8174C150.807 41.1384 150.688 40.5469 150.45 40.0429C150.212 39.5319 149.89 39.1364 149.484 38.8564C149.085 38.5764 148.637 38.4364 148.14 38.4364C147.692 38.4364 147.293 38.5484 146.943 38.7724C146.6 38.9894 146.331 39.3009 146.135 39.7069C145.939 40.1129 145.841 40.5924 145.841 41.1454C145.841 41.8244 145.96 42.4194 146.198 42.9304C146.443 43.4414 146.768 43.8369 147.174 44.1169C147.58 44.3969 148.035 44.5369 148.539 44.5369ZM154.573 44.9569V44.7889L155.623 44.3689V38.6044H153.911L153.197 40.1479H153.029V38.0269H159.161V40.1479H158.993L158.279 38.6044H156.568V44.3689L157.618 44.7889V44.9569H154.573ZM160.315 44.9569V44.7889L161.155 44.3689V38.6149L160.315 38.1949V38.0269H165.449V39.8329H165.281L164.63 38.6044H162.1V41.0929H163.885L164.41 40.2214H164.578V42.5209H164.41L163.885 41.6704H162.1V44.3794H164.924L165.575 43.0459H165.743V44.9569H160.315ZM167.164 44.9569V44.7889L168.004 44.3689V38.6149L167.164 38.1949V38.0269H169.894V38.1949L168.949 38.6149V44.3794H171.501L172.215 42.6259H172.383V44.9569H167.164ZM173.748 44.9569V44.7889L174.588 44.3689V38.6149L173.748 38.1949V38.0269H176.373V38.1949L175.533 38.6149V44.3689L176.373 44.7889V44.9569H173.748ZM177.588 46.7734C177.497 46.7734 177.416 46.7524 177.346 46.7104C177.276 46.6684 177.241 46.5914 177.241 46.4794C177.241 46.4654 177.245 46.4304 177.252 46.3744C177.266 46.3184 177.297 46.1644 177.346 45.9124H177.409C177.528 45.9474 177.623 45.9719 177.693 45.9859C177.763 45.9999 177.847 46.0069 177.945 46.0069C178.099 46.0069 178.228 45.9719 178.333 45.9019C178.445 45.8319 178.529 45.6849 178.585 45.4609C178.648 45.2369 178.68 44.8904 178.68 44.4214V38.6149L177.84 38.1949V38.0269H180.465V38.1949L179.625 38.6149V42.4369C179.625 43.2209 179.562 43.9279 179.436 44.5579C179.31 45.1809 179.096 45.6604 178.795 45.9964C178.592 46.2204 178.428 46.3884 178.302 46.5004C178.176 46.6124 178.06 46.6859 177.955 46.7209C177.85 46.7559 177.728 46.7734 177.588 46.7734ZM181.776 44.9569V44.7889L182.616 44.3689V38.6149L181.776 38.1949V38.0269H186.911V39.8329H186.743L186.092 38.6044H183.561V41.0929H185.346L185.871 40.2214H186.039V42.5209H185.871L185.346 41.6704H183.561V44.3794H186.386L187.037 43.0459H187.205V44.9569H181.776ZM188.626 44.9569V44.7889L189.466 44.3689V38.6149L188.626 38.1949V38.0269H191.335C192.07 38.0269 192.647 38.1809 193.067 38.4889C193.494 38.7899 193.708 39.2064 193.708 39.7384C193.708 40.1304 193.575 40.4839 193.309 40.7989C193.043 41.1069 192.689 41.3414 192.248 41.5024L194.243 44.4109L194.936 44.7889V44.9569H193.424L191.387 41.7754H190.411V44.3584L191.198 44.7889V44.9569H188.626ZM191.093 38.6044H190.411V41.1979H191.156C191.597 41.1979 191.961 41.0754 192.248 40.8304C192.542 40.5784 192.689 40.2599 192.689 39.8749C192.689 39.4829 192.546 39.1749 192.259 38.9509C191.972 38.7199 191.583 38.6044 191.093 38.6044ZM195.232 44.9569V44.7889L195.904 44.4424L198.592 37.9744H199.064L201.71 44.4109L202.414 44.7889V44.9569H199.81V44.7889L200.734 44.4319L199.946 42.4894H197.395L196.618 44.4319L197.5 44.7889V44.9569H195.232ZM197.636 41.9119H199.715L198.676 39.3289L197.636 41.9119Z" fill="#D9B04C"/>
<path d="M29.3655 6.63974L0 23.4505V16.8538L29.3655 0.0431366V6.63974Z" fill="white"/>
<path d="M29.3657 6.63974L45.3252 16.0027V9.40606L29.3657 0.0431366V6.63974Z" fill="white"/>
<path d="M29.3655 14.8525L58.4914 31.9569L58.572 25.3608L29.3655 8.25589L29.3655 14.8525Z" fill="#D9B04C"/>
<path d="M29.4423 14.8359L13.27 23.7732L13.27 17.4958L29.4423 8.23929L29.4423 14.8359Z" fill="#D9B04C"/>
</svg>
